<?xml version="1.0" standalone="no"?>
<!DOCTYPE svg PUBLIC "-//W3C//DTD SVG 20010904//EN"
 "http://www.w3.org/TR/2001/REC-SVG-20010904/DTD/svg10.dtd">
<svg version="1.0" xmlns="http://www.w3.org/2000/svg"
 width="256.000000pt" height="246.000000pt" viewBox="0 0 256.000000 246.000000"
 preserveAspectRatio="xMidYMid meet">

<g transform="translate(0.000000,246.000000) scale(0.100000,-0.100000)"
fill="#000000" stroke="none">
<path d="M0 1230 l0 -1230 1275 0 1275 0 0 1230 0 1230 -418 0 -418 0 -35 -47
c-19 -27 -38 -56 -42 -65 -10 -28 -55 -23 -63 6 -6 27 21 75 43 76 7 0 10 7 7
15 -5 13 -105 15 -815 15 l-809 0 0 -1230z m230 1186 c0 -8 7 -16 15 -20 15
-5 13 -13 -13 -55 -1 -3 -12 6 -24 19 -15 16 -18 25 -10 28 7 2 12 12 12 23 0
10 5 19 10 19 6 0 10 -6 10 -14z m2075 -81 c1 -28 -2 -35 -16 -35 -10 0 -21
-4 -24 -10 -12 -20 -21 -9 -21 25 0 26 4 35 17 35 9 0 20 7 23 16 9 24 18 10
21 -31z m-1065 -590 c0 -8 -2 -15 -4 -15 -2 0 -6 7 -10 15 -3 8 -1 15 4 15 6
0 10 -7 10 -15z m39 -7 c0 -16 -2 -18 -6 -8 -3 8 -11 18 -17 22 -7 5 -4 8 7 8
11 0 17 -7 16 -22z m117 -9 c19 -22 19 -22 -3 -10 -13 6 -23 16 -23 21 0 15 5
12 26 -11z m-84 -21 c-8 -8 -9 -4 -5 13 4 13 8 18 11 10 2 -7 -1 -18 -6 -23z
m172 -24 c13 -33 4 -42 -23 -25 -14 9 -9 41 8 41 5 0 12 -7 15 -16z m145 -7
c-2 -1 -13 -9 -24 -17 -19 -14 -19 -14 -6 3 7 9 18 17 24 17 6 0 8 -1 6 -3z
m-359 -37 c-6 -11 -13 -20 -16 -20 -2 0 0 9 6 20 6 11 13 20 16 20 2 0 0 -9
-6 -20z m243 7 c3 -8 -1 -14 -8 -14 -7 0 -11 6 -8 14 3 7 6 13 8 13 2 0 5 -6
8 -13z m357 -17 c24 -24 25 -43 5 -60 -34 -28 -77 18 -55 60 13 25 25 25 50 0z
m-289 -43 c-10 -9 -11 -8 -5 7 5 13 4 17 -4 12 -7 -4 -12 -1 -12 7 0 24 14 29
24 7 6 -14 5 -24 -3 -33z m-1171 -14 c0 -36 3 -39 55 -62 63 -27 69 -39 23
-41 -117 -4 -143 6 -134 53 4 18 8 43 10 57 4 32 3 30 26 30 16 0 20 -7 20
-37z m1075 27 c3 -5 1 -10 -4 -10 -6 0 -11 5 -11 10 0 6 2 10 4 10 3 0 8 -4
11 -10z m335 -44 c0 -3 -4 -8 -10 -11 -5 -3 -10 -1 -10 4 0 6 5 11 10 11 6 0
10 -2 10 -4z m-106 -145 c-6 -6 -24 19 -24 34 1 6 7 1 15 -9 8 -11 12 -22 9
-25z m-47 -13 c-3 -7 -5 -2 -5 12 0 14 2 19 5 13 2 -7 2 -19 0 -25z m-1161
-250 c-9 -5 -16 -16 -16 -23 0 -26 -40 -17 -50 11 -14 36 -14 37 25 31 21 -3
37 -1 42 6 5 8 8 7 11 -2 3 -8 -3 -18 -12 -23z m1193 -64 c-5 -7 -8 -16 -7
-20 6 -17 -12 -14 -32 6 -11 11 -15 22 -10 25 6 4 10 15 10 27 0 19 1 19 24
-3 17 -16 22 -27 15 -35z m-1189 -32 c11 -25 20 -59 20 -77 0 -31 -2 -33 -41
-37 -42 -4 -59 6 -41 24 8 8 8 17 0 32 -6 12 -12 23 -12 26 -1 3 -7 4 -13 4
-16 -2 -16 17 -1 51 9 19 18 25 40 23 24 -2 32 -10 48 -46z m634 -133 c-8 -14
-34 -11 -34 4 0 8 3 17 7 20 9 9 34 -13 27 -24z m1121 -80 c-7 -20 -8 -21 -17
-5 -5 9 -7 24 -4 33 10 26 29 -1 21 -28z m220 -550 c0 -7 -8 -15 -17 -17 -18
-3 -25 18 -11 32 10 10 28 1 28 -15z m-2139 -144 c3 -14 13 -29 22 -34 13 -7
12 -10 -6 -20 -12 -7 -22 -21 -22 -31 0 -11 -4 -20 -10 -20 -5 0 -10 11 -10
25 0 16 -6 25 -15 25 -8 0 -15 7 -15 15 0 8 7 15 15 15 9 0 15 9 15 25 0 32
18 32 26 0z m1027 -70 c8 -18 -11 -31 -25 -17 -11 11 -3 32 12 32 4 0 10 -7
13 -15z m57 -45 c0 -5 -4 -10 -10 -10 -5 0 -10 5 -10 10 0 6 5 10 10 10 6 0
10 -4 10 -10z"/>
<path d="M1600 2360 c0 -5 5 -10 11 -10 5 0 7 5 4 10 -3 6 -8 10 -11 10 -2 0
-4 -4 -4 -10z"/>
</g>
</svg>
